<?xml version="1.0" encoding="UTF-8" standalone="no"?>
<!-- Created with Inkscape (http://www.inkscape.org/) -->

<svg
   width="90"
   height="90"
   viewBox="0 0 90 90"
   version="1.1"
   id="svg1"
   xml:space="preserve"
   xmlns="http://www.w3.org/2000/svg"
   xmlns:svg="http://www.w3.org/2000/svg"><defs
     id="defs1"><linearGradient
       id="swatch223"><stop
         style="stop-color:#c6e1ff;stop-opacity:1;"
         offset="0"
         id="stop223" /></linearGradient><linearGradient
       id="swatch221"><stop
         style="stop-color:#000000;stop-opacity:1;"
         offset="0"
         id="stop221" /></linearGradient><linearGradient
       id="swatch220"><stop
         style="stop-color:#000000;stop-opacity:1;"
         offset="0"
         id="stop220" /></linearGradient><linearGradient
       id="swatch219"><stop
         style="stop-color:#000000;stop-opacity:1;"
         offset="0"
         id="stop219" /></linearGradient><linearGradient
       id="swatch217"><stop
         style="stop-color:#0b0637;stop-opacity:1;"
         offset="0"
         id="stop217" /></linearGradient></defs><g
     id="layer1"
     transform="translate(-1024.4462,252.08896)"><g
       id="g400"
       style="stroke-width:8;stroke-dasharray:none"><g
         id="g389"
         transform="translate(915.44621,-1212.089)"
         style="stroke:#0b0637;stroke-width:8;stroke-dasharray:none;stroke-opacity:1"><path
           id="path389"
           style="fill:none;fill-opacity:1;stroke:#0b0637;stroke-width:8;stroke-linecap:round;stroke-linejoin:round;stroke-dasharray:none;stroke-opacity:1;paint-order:markers stroke fill"
           d="m 125,980.00006 c 0,37.43394 0,37.49994 0,37.49994 m 0,0 a 12.5,12.5 0 0 1 12.5,-12.5 12.5,12.5 0 0 1 12.5,12.5 v 0 a 12.5,12.5 0 0 1 -12.5,12.5 12.5,12.5 0 0 1 -0.40945,-0.01" /></g><path
         id="path395"
         style="fill:none;fill-opacity:1;stroke:#0b0637;stroke-width:8;stroke-linecap:round;stroke-linejoin:round;stroke-dasharray:none;stroke-opacity:1;paint-order:markers stroke fill"
         d="m 1098.4462,-194.58897 c 0,12.478 0,12.5 0,12.5 m -25,-12.5 a 12.5,12.5 0 0 1 12.5,-12.5 12.5,12.5 0 0 1 12.5,12.5 m -25,0 c 0,12.478 0,12.5 0,12.5 m 25,-12.5 c 0,12.478 0,12.5 0,12.5 m -25,-12.5 a 12.5,12.5 0 0 1 12.5,-12.5 12.5,12.5 0 0 1 12.5,12.5 m -25,0 c 0,12.478 0,12.5 0,12.5" /></g><rect
       style="opacity:1;vector-effect:non-scaling-stroke;fill:none;fill-opacity:1;stroke:none;stroke-width:0.932007;stroke-linecap:round;stroke-linejoin:round;stroke-dasharray:none;stroke-opacity:1;-inkscape-stroke:hairline;paint-order:markers stroke fill"
       id="rect400"
       width="90"
       height="90"
       x="1024.4462"
       y="-252.08896" /></g></svg>
