<?xml version="1.0" encoding="UTF-8" standalone="no"?>
<!-- Created with Inkscape (http://www.inkscape.org/) -->

<svg
   width="363"
   height="103"
   viewBox="0 0 363 103"
   version="1.1"
   id="svg1"
   xml:space="preserve"
   xmlns="http://www.w3.org/2000/svg"
   xmlns:svg="http://www.w3.org/2000/svg"><defs
     id="defs1"><linearGradient
       id="swatch223"><stop
         style="stop-color:#c6e1ff;stop-opacity:1;"
         offset="0"
         id="stop223" /></linearGradient><linearGradient
       id="swatch221"><stop
         style="stop-color:#000000;stop-opacity:1;"
         offset="0"
         id="stop221" /></linearGradient><linearGradient
       id="swatch220"><stop
         style="stop-color:#000000;stop-opacity:1;"
         offset="0"
         id="stop220" /></linearGradient><linearGradient
       id="swatch219"><stop
         style="stop-color:#000000;stop-opacity:1;"
         offset="0"
         id="stop219" /></linearGradient><linearGradient
       id="swatch217"><stop
         style="stop-color:#0b0637;stop-opacity:1;"
         offset="0"
         id="stop217" /></linearGradient></defs><g
     id="layer1"
     transform="translate(-1664.1626,252.12242)"><path
       id="path448"
       style="fill:none;fill-opacity:1;stroke:#c6e1ff;stroke-width:8;stroke-linecap:round;stroke-linejoin:round;stroke-dasharray:none;stroke-opacity:1;paint-order:markers stroke fill"
       d="m 1998.1626,-194.58897 c 0,12.478 0,12.5 0,12.5 m -25,-12.5 a 12.5,12.5 0 0 1 12.5,-12.5 12.5,12.5 0 0 1 12.5,12.5 m -25,0 c 0,12.478 0,12.5 0,12.5 m -22.5,-12.5 c 12.5,0 12.5,0 12.5,0 m -12.5,12.5 a 12.5,12.5 0 0 1 -12.5,-12.5 12.5,12.5 0 0 1 12.5,-12.5 12.5,12.5 0 0 1 12.5,12.5 m -60,0 c 0,-12.478 0,-12.5 0,-12.5 m 25,12.5 a 12.5,12.5 0 0 1 -12.5,12.5 12.5,12.5 0 0 1 -12.5,-12.5 m 25,25 v 0 a 12.5,12.5 0 0 1 -12.5,12.5 m -12.5,-12.5 m 25,-37.5 c 0,37.295 0,37.5 0,37.5 m -60.0001,-25.00001 c 0,-12.478 0,-12.5 0,-12.5 m 25,12.5 a 12.5,12.5 0 0 1 -12.5,12.5 12.5,12.5 0 0 1 -12.5,-12.5 m 25,0 c 0,-12.478 0,-12.5 0,-12.5 m -35,37.50001 v 0 a 12.5,12.5 0 0 1 -12.5,12.5 m -12.5,-12.5 m 25,-25 c 0,24.8633 0,25 0,25 m -12.5,-12.5 a 12.5,12.5 0 0 1 -12.5,-12.5 12.5,12.5 0 0 1 12.5,-12.5 12.5,12.5 0 0 1 12.5,12.5 m -35,0 c 0,12.478 0,12.5 0,12.5 m -25,-12.5 a 12.5,12.5 0 0 1 12.5,-12.5 12.5,12.5 0 0 1 12.5,12.5 m -25,0 c 0,12.478 0,12.5 0,12.5 m -10,-12.5 a 12.5,12.5 0 0 1 -12.5,12.5 12.5,12.5 0 0 1 -12.5,-12.5 12.5,12.5 0 0 1 12.5,-12.5 12.5,12.5 0 0 1 12.5,12.5 z m -35,-3e-5 c 0,12.478 0,12.5 0,12.5 m -12.5,0 a 12.5,12.5 0 0 1 -12.5,-12.5 12.5,12.5 0 0 1 12.5,-12.5 12.5,12.5 0 0 1 12.5,12.5 m -60,-37.49994 c 0,37.43394 0,37.49994 0,37.49994 m 0,0 a 12.5,12.5 0 0 1 12.5,-12.5 12.5,12.5 0 0 1 12.5,12.5 v 0 a 12.5,12.5 0 0 1 -12.5,12.5 12.5,12.5 0 0 1 -0.4094,-0.01 m 292.9095,-12.48997 c 0,12.478 0,12.5 0,12.5 m -25,-12.5 a 12.5,12.5 0 0 1 12.5,-12.5 12.5,12.5 0 0 1 12.5,12.5 m -25,0 c 0,12.478 0,12.5 0,12.5 m -22.5,-12.5 c 12.5,0 12.5,0 12.5,0 m -12.5,12.5 a 12.5,12.5 0 0 1 -12.5,-12.5 12.5,12.5 0 0 1 12.5,-12.5 12.5,12.5 0 0 1 12.5,12.5 m -60,0 c 0,-12.478 0,-12.5 0,-12.5 m 25,12.5 a 12.5,12.5 0 0 1 -12.5,12.5 12.5,12.5 0 0 1 -12.5,-12.5 m 25,25 v 0 a 12.5,12.5 0 0 1 -12.5,12.5 m -12.5,-12.5 m 25,-37.5 c 0,37.295 0,37.5 0,37.5 m -60.0001,-25.00001 c 0,-12.478 0,-12.5 0,-12.5 m 25,12.5 a 12.5,12.5 0 0 1 -12.5,12.5 12.5,12.5 0 0 1 -12.5,-12.5 m 25,0 c 0,-12.478 0,-12.5 0,-12.5 m -35,37.50001 v 0 a 12.5,12.5 0 0 1 -12.5,12.5 m -12.5,-12.5 m 25,-25 c 0,24.8633 0,25 0,25 m -12.5,-12.5 a 12.5,12.5 0 0 1 -12.5,-12.5 12.5,12.5 0 0 1 12.5,-12.5 12.5,12.5 0 0 1 12.5,12.5 m -35,0 c 0,12.478 0,12.5 0,12.5 m -25,-12.5 a 12.5,12.5 0 0 1 12.5,-12.5 12.5,12.5 0 0 1 12.5,12.5 m -25,0 c 0,12.478 0,12.5 0,12.5 m -10,-12.5 a 12.5,12.5 0 0 1 -12.5,12.5 12.5,12.5 0 0 1 -12.5,-12.5 12.5,12.5 0 0 1 12.5,-12.5 12.5,12.5 0 0 1 12.5,12.5 z m -35,-3e-5 c 0,12.478 0,12.5 0,12.5 m -12.5,0 a 12.5,12.5 0 0 1 -12.5,-12.5 12.5,12.5 0 0 1 12.5,-12.5 12.5,12.5 0 0 1 12.5,12.5 m -60,-37.49994 c 0,37.43394 0,37.49994 0,37.49994 m 0,0 a 12.5,12.5 0 0 1 12.5,-12.5 12.5,12.5 0 0 1 12.5,12.5 v 0 a 12.5,12.5 0 0 1 -12.5,12.5 12.5,12.5 0 0 1 -0.4094,-0.01" /><path
       style="opacity:1;fill:none;fill-opacity:1;stroke:#c6e1ff;stroke-width:3;stroke-linecap:round;stroke-linejoin:round;stroke-dasharray:none;stroke-opacity:1;paint-order:markers stroke fill"
       id="rect1"
       width="360"
       height="100"
       x="1665.6626"
       y="-250.62242"
       d="m 1680.6626,-250.62242 h 330 a 15,15 45 0 1 15,15 l 0,70 a 15,15 135 0 1 -15,15 h -330 a 15,15 45 0 1 -15,-15 l 0,-70 a 15,15 135 0 1 15,-15 z" /></g></svg>
